<?xml version="1.0" standalone="no"?>
<!DOCTYPE svg PUBLIC "-//W3C//DTD SVG 20010904//EN"
 "http://www.w3.org/TR/2001/REC-SVG-20010904/DTD/svg10.dtd">
<svg version="1.0" xmlns="http://www.w3.org/2000/svg"
 width="1280.000000pt" height="700.000000pt" viewBox="0 0 1280.000000 700.000000"
 preserveAspectRatio="xMidYMid meet">
<metadata>
Created by potrace 1.15, written by Peter Selinger 2001-2017
</metadata>
<g transform="translate(0.000000,700.000000) scale(0.100000,-0.100000)"
fill="#000000" stroke="none">
<path d="M6160 6962 c-19 -9 -36 -20 -38 -24 -2 -5 -10 -8 -18 -8 -14 0 -104
-83 -104 -95 0 -3 -9 -15 -20 -27 -11 -12 -20 -30 -20 -39 0 -10 -4 -20 -9
-23 -5 -4 -12 -24 -16 -46 -4 -22 -11 -40 -16 -40 -5 0 -9 -80 -9 -185 0 -102
4 -185 9 -185 5 0 14 -30 20 -67 6 -38 15 -88 21 -113 6 -25 13 -61 16 -80 3
-19 10 -36 15 -38 5 -2 9 -21 9 -43 0 -21 5 -39 10 -39 6 0 10 -18 10 -41 0
-24 4 -38 10 -34 6 4 10 -10 10 -34 0 -23 5 -41 10 -41 6 0 10 -18 10 -40 0
-22 5 -40 10 -40 6 0 10 -20 10 -44 0 -24 5 -46 11 -48 12 -4 28 -71 36 -155
3 -29 9 -53 14 -53 5 0 9 -25 9 -55 0 -30 -4 -55 -8 -55 -5 0 -14 -11 -20 -25
-15 -32 -16 -201 -2 -210 6 -3 10 -15 10 -26 0 -10 5 -19 10 -19 6 0 10 -9 10
-20 0 -11 5 -20 10 -20 6 0 10 -9 10 -20 0 -13 7 -20 18 -20 10 0 24 -9 32
-20 19 -26 56 -25 83 3 13 12 23 24 23 27 4 39 17 79 25 75 5 -4 9 17 9 49 0
30 -5 56 -11 58 -6 2 -13 21 -15 43 -3 22 -9 53 -15 69 -5 16 -9 40 -9 52 0
13 -4 24 -10 24 -5 0 -10 20 -10 45 0 25 -4 45 -10 45 -5 0 -10 18 -10 40 0
22 -4 40 -10 40 -5 0 -10 18 -10 41 0 24 -4 38 -10 34 -6 -4 -10 10 -10 34 0
23 -4 41 -10 41 -5 0 -10 18 -10 40 0 22 -4 40 -10 40 -5 0 -12 17 -15 38 -4
20 -10 48 -15 62 -5 14 -14 60 -21 103 -7 42 -17 77 -21 77 -4 0 -8 29 -8 65
0 37 -4 65 -10 65 -6 0 -10 82 -10 225 0 143 4 225 10 225 6 0 10 23 10 51 0
31 4 48 10 44 6 -3 10 5 10 19 0 28 47 139 61 144 5 2 9 9 9 16 0 18 24 66 33
66 4 0 7 7 7 15 0 8 5 15 10 15 6 0 10 10 10 22 0 12 -3 19 -6 15 -4 -3 -13 0
-21 8 -18 19 -39 18 -83 -3z"/>
<path d="M9348 6953 c-27 -2 -48 -8 -48 -14 0 -5 -9 -9 -20 -9 -11 0 -20 -4
-20 -10 0 -5 -14 -10 -31 -10 -17 0 -28 -4 -24 -10 3 -5 -3 -10 -15 -10 -12 0
-18 -4 -15 -10 3 -5 1 -10 -5 -10 -14 0 -80 -66 -80 -80 0 -5 -4 -10 -10 -10
-5 0 -10 -19 -10 -42 0 -32 -3 -39 -10 -28 -8 12 -10 11 -10 -7 0 -13 5 -23
10 -23 6 0 10 -21 10 -46 0 -27 4 -43 10 -39 6 4 10 -9 10 -32 0 -28 -3 -34
-10 -23 -8 12 -10 9 -10 -12 0 -16 -4 -28 -10 -28 -5 0 -10 -9 -10 -20 0 -11
-4 -20 -10 -20 -5 0 -10 -9 -10 -20 0 -11 -4 -20 -10 -20 -5 0 -10 -9 -10 -20
0 -11 -4 -20 -10 -20 -5 0 -10 -9 -10 -20 0 -11 -7 -23 -15 -26 -8 -4 -15 -15
-15 -25 0 -10 -4 -19 -10 -19 -5 0 -10 -9 -10 -20 0 -11 -4 -20 -10 -20 -5 0
-10 -9 -10 -20 0 -11 -4 -20 -10 -20 -5 0 -10 -9 -10 -20 0 -11 -4 -20 -10
-20 -5 0 -10 -11 -10 -25 0 -14 -4 -25 -8 -25 -5 0 -21 -27 -37 -60 -16 -33
-32 -60 -36 -60 -4 0 -13 -20 -20 -45 -8 -28 -16 -40 -21 -32 -4 7 -8 -3 -8
-23 0 -26 -3 -31 -10 -20 -8 12 -10 9 -10 -12 0 -16 -4 -28 -10 -28 -5 0 -10
-9 -10 -19 0 -11 -4 -21 -9 -23 -5 -1 -11 -10 -13 -18 -3 -14 -7 -20 -35 -54
-7 -8 -13 -22 -13 -31 0 -9 -4 -13 -10 -10 -5 3 -10 -3 -10 -14 0 -12 -4 -21
-10 -21 -5 0 -10 -9 -10 -20 0 -11 -4 -20 -10 -20 -5 0 -10 -9 -10 -20 0 -11
-4 -20 -10 -20 -5 0 -10 -6 -10 -14 0 -8 -3 -16 -7 -18 -5 -1 -21 -23 -38 -48
-16 -25 -37 -52 -45 -60 -8 -8 -16 -22 -18 -30 -2 -8 -8 -16 -13 -18 -5 -2 -9
-9 -9 -16 0 -6 -9 -18 -20 -26 -11 -8 -20 -20 -20 -28 0 -15 -45 -62 -60 -62
-5 0 -10 -7 -10 -15 0 -8 -4 -15 -10 -15 -5 0 -10 -10 -10 -22 0 -19 -2 -20
-10 -8 -8 13 -10 12 -10 -3 0 -19 -62 -87 -80 -87 -5 0 -9 -4 -8 -8 5 -13 -70
-82 -89 -82 -15 0 -16 -2 -3 -10 13 -8 12 -10 -3 -10 -10 0 -28 -10 -41 -22
-12 -13 -35 -32 -50 -43 -16 -11 -34 -25 -41 -32 -7 -7 -15 -9 -19 -6 -3 3 -8
-2 -12 -11 -3 -9 -15 -16 -25 -16 -10 0 -19 -4 -19 -10 0 -5 -7 -10 -15 -10
-8 0 -15 -4 -15 -10 0 -5 -9 -10 -20 -10 -11 0 -20 -4 -20 -10 0 -5 7 -10 15
-10 8 0 15 -4 15 -10 0 -6 38 -10 95 -10 57 0 95 4 95 10 0 6 16 10 35 10 19
0 35 5 35 10 0 6 9 10 20 10 11 0 20 7 20 16 0 8 4 13 9 9 5 -3 16 1 24 9 8 8
17 12 21 9 3 -4 6 1 6 10 0 10 7 17 16 17 8 0 12 5 9 10 -3 6 1 10 10 10 9 0
13 5 10 10 -3 6 -1 10 5 10 11 0 60 44 60 54 0 3 20 27 45 53 25 25 43 48 40
51 -5 6 21 32 32 32 5 0 15 16 23 35 7 19 17 32 22 29 4 -3 8 1 8 8 0 8 9 20
20 28 11 8 20 21 20 30 0 9 9 22 20 30 11 8 20 20 20 28 0 7 7 15 15 18 8 4
15 12 15 20 0 8 5 14 10 14 6 0 10 9 10 20 0 11 5 20 10 20 6 0 10 7 10 15 0
9 9 25 20 37 11 12 20 28 20 35 0 7 5 13 10 13 6 0 10 6 10 14 0 8 4 16 9 18
5 2 11 10 13 18 3 14 13 29 36 55 6 7 12 21 12 29 0 9 5 16 10 16 6 0 10 9 10
21 0 11 5 17 10 14 6 -3 10 3 10 14 0 12 5 21 10 21 6 0 10 9 10 20 0 11 5 20
10 20 6 0 10 11 10 25 0 14 4 25 9 25 9 0 37 60 33 73 -1 4 5 7 13 7 8 0 15 9
15 20 0 11 5 20 10 20 6 0 10 12 10 26 0 14 4 23 10 19 6 -4 10 5 10 19 0 14
5 26 10 26 6 0 10 9 10 20 0 11 5 20 10 20 6 0 10 9 10 20 0 11 3 20 8 20 4 0
20 29 36 65 16 36 33 65 37 65 5 0 9 9 9 20 0 11 5 20 10 20 6 0 10 12 10 28
0 21 2 24 10 12 8 -12 10 -11 10 8 0 12 5 22 10 22 6 0 10 9 10 20 0 11 5 20
10 20 6 0 10 11 10 25 0 14 3 25 8 25 4 0 16 18 26 40 11 22 23 40 28 40 4 0
8 9 8 20 0 11 5 20 10 20 6 0 10 9 10 20 0 11 5 20 10 20 6 0 10 12 10 26 0
14 4 23 10 19 8 -5 15 19 8 28 -2 2 9 15 25 30 15 16 27 31 27 35 0 4 23 31
50 60 28 29 50 59 50 67 0 8 5 15 10 15 8 0 16 79 8 80 -30 5 -83 6 -120 3z"/>
<path d="M1472 6112 c-11 -50 -3 -177 14 -204 3 -5 8 -24 11 -41 3 -18 9 -33
14 -35 5 -2 9 -12 9 -23 0 -10 5 -19 10 -19 6 0 10 -12 10 -27 0 -22 2 -25 10
-13 8 13 10 12 10 -3 0 -16 41 -67 54 -67 6 0 56 -49 56 -56 0 -6 88 -94 94
-94 6 0 76 -71 76 -77 0 -3 14 -18 30 -33 17 -15 30 -33 30 -40 0 -6 5 -8 10
-5 6 3 10 0 10 -9 0 -8 25 -39 55 -70 30 -30 55 -63 55 -73 0 -14 2 -15 9 -4
7 11 10 9 16 -8 3 -11 20 -34 36 -51 17 -16 28 -30 24 -30 -7 0 8 -18 53 -65
17 -19 32 -38 32 -42 0 -5 9 -15 20 -23 11 -8 20 -22 20 -32 0 -10 5 -18 11
-18 15 0 39 -26 32 -34 -4 -3 1 -6 10 -6 10 0 17 -8 17 -18 0 -10 9 -24 20
-32 11 -8 20 -18 20 -23 0 -4 15 -23 33 -41 17 -18 41 -46 52 -61 11 -16 30
-39 43 -51 12 -13 22 -30 22 -39 0 -9 5 -13 10 -10 6 3 10 1 10 -5 0 -6 15
-26 33 -45 42 -44 57 -63 57 -70 0 -4 23 -28 50 -55 28 -27 50 -51 50 -54 0
-16 376 -396 392 -396 5 0 27 -18 48 -40 21 -22 45 -40 52 -40 7 0 20 -9 28
-20 8 -11 20 -20 27 -20 7 0 13 -5 13 -11 0 -26 30 -39 94 -39 37 0 66 4 66
10 0 6 6 10 14 10 10 0 13 9 11 29 -4 31 -25 71 -37 71 -5 0 -8 7 -8 16 0 8
-4 12 -10 9 -6 -3 -10 -1 -10 6 0 7 -3 9 -6 6 -4 -3 -19 7 -34 23 -16 17 -33
30 -39 30 -6 0 -11 5 -11 10 0 6 -7 10 -15 10 -8 0 -15 4 -15 8 0 4 -15 16
-32 27 -18 10 -45 31 -60 47 -14 15 -36 28 -48 28 -11 0 -18 5 -15 10 3 6 -1
10 -9 10 -9 0 -16 5 -16 10 0 6 -9 10 -20 10 -11 0 -20 7 -20 16 0 8 -4 12
-10 9 -5 -3 -10 -3 -10 2 0 4 -21 22 -45 38 -25 17 -45 33 -45 38 0 4 -9 7
-21 7 -11 0 -17 5 -14 10 3 6 1 10 -5 10 -18 0 -40 27 -40 50 0 12 -4 18 -10
15 -6 -4 -10 8 -10 29 0 25 -4 36 -15 36 -8 0 -14 3 -13 8 3 12 -25 82 -34 82
-4 0 -8 9 -8 20 0 11 -4 20 -10 20 -5 0 -10 9 -10 20 0 11 -4 20 -10 20 -5 0
-10 9 -10 19 0 11 -4 21 -8 23 -4 2 -21 26 -37 53 -15 28 -37 57 -47 66 -9 9
-15 19 -11 22 3 4 -2 9 -11 13 -9 3 -16 12 -16 20 0 8 -4 14 -10 14 -5 0 -10
7 -10 16 0 8 -4 12 -10 9 -5 -3 -10 -1 -10 5 0 7 -14 25 -30 40 -20 19 -26 30
-18 33 10 4 10 6 0 6 -13 1 -62 45 -62 56 0 3 -24 30 -52 59 -29 30 -74 77
-100 104 -25 28 -49 48 -52 45 -3 -4 -6 1 -6 10 0 10 -4 17 -10 17 -5 0 -10 5
-10 11 0 11 -25 39 -35 39 -8 0 -75 67 -75 75 0 4 -7 13 -15 21 -9 9 -15 11
-15 4 0 -7 -5 -6 -14 2 -8 7 -12 16 -9 21 2 4 -3 7 -11 7 -9 0 -16 4 -16 8 0
5 -29 39 -65 75 -36 37 -65 69 -65 72 0 8 -26 35 -33 35 -7 0 -77 68 -77 75 0
3 -13 19 -30 37 -16 17 -30 37 -30 44 0 8 -6 14 -13 14 -8 0 -20 11 -27 25 -7
14 -17 25 -22 25 -5 0 -6 5 -3 10 3 6 -1 10 -9 10 -9 0 -16 7 -16 15 0 8 -4
15 -10 15 -5 0 -10 6 -10 13 0 7 -9 19 -20 27 -11 8 -20 22 -20 32 0 10 -4 18
-10 18 -5 0 -10 5 -10 10 0 6 -6 18 -12 26 -29 34 -33 40 -36 54 -2 8 -7 17
-12 20 -4 3 -9 14 -12 25 -2 12 -8 -1 -16 -33z"/>
<path d="M3860 6070 c0 -5 -13 -10 -30 -10 -16 0 -30 -4 -30 -10 0 -9 4 -11
25 -10 10 0 162 -155 158 -162 -2 -3 3 -12 10 -20 24 -24 61 -82 64 -97 1 -9
7 -17 12 -19 6 -2 11 -12 11 -23 0 -10 5 -19 10 -19 6 0 10 -10 10 -22 0 -19
2 -20 10 -8 7 11 10 5 10 -22 0 -21 5 -38 10 -38 6 0 10 -13 10 -30 0 -16 5
-30 10 -30 6 0 10 -9 10 -21 0 -11 7 -27 15 -35 8 -9 15 -24 15 -35 0 -10 4
-19 8 -19 4 0 9 -12 10 -27 1 -16 7 -29 12 -31 6 -2 10 -25 10 -50 0 -34 3
-43 10 -32 7 11 10 2 10 -33 0 -30 4 -46 10 -42 6 4 10 -12 10 -42 0 -35 3
-44 10 -33 7 11 10 4 10 -27 0 -24 5 -43 10 -43 6 0 10 -18 10 -40 0 -22 4
-40 9 -40 9 0 13 -12 25 -75 7 -35 41 -120 49 -123 4 -2 7 -15 7 -28 0 -13 5
-24 10 -24 6 0 10 -14 10 -31 0 -17 4 -28 10 -24 6 4 10 -5 10 -19 0 -14 5
-26 10 -26 6 0 10 -9 10 -20 0 -11 5 -20 10 -20 6 0 10 -9 10 -20 0 -11 3 -20
8 -20 4 0 16 -16 26 -35 11 -19 23 -35 28 -35 4 0 8 -7 8 -15 0 -9 15 -31 33
-49 17 -19 46 -50 64 -70 18 -20 36 -36 40 -36 5 0 15 -9 23 -20 8 -11 22 -20
32 -20 16 0 18 10 18 75 0 41 -4 75 -9 75 -5 0 -12 17 -15 38 -13 75 -30 131
-38 126 -4 -3 -8 11 -8 30 0 20 -4 36 -10 36 -5 0 -10 7 -10 16 0 8 -4 12 -10
9 -6 -4 -10 5 -10 20 0 15 -4 24 -10 20 -5 -3 -10 3 -10 15 0 23 -22 50 -40
50 -6 0 -8 5 -5 10 3 6 -2 10 -11 10 -10 0 -15 3 -11 6 5 6 0 15 -30 49 -7 7
-13 18 -13 24 0 6 -4 11 -10 11 -5 0 -10 9 -10 20 0 11 -4 20 -10 20 -5 0 -10
14 -10 30 0 17 -4 30 -10 30 -5 0 -10 11 -10 25 0 14 -4 25 -10 25 -5 0 -10
18 -10 39 0 22 -5 41 -12 43 -11 4 -22 57 -35 171 -2 26 -9 47 -14 47 -5 0 -9
30 -9 66 0 41 -4 63 -10 59 -6 -4 -10 18 -10 59 0 37 -4 66 -10 66 -5 0 -10
26 -10 58 0 36 -3 52 -9 43 -6 -9 -10 0 -14 30 -10 75 -19 108 -33 120 -8 6
-14 20 -14 30 0 11 -4 19 -10 19 -5 0 -10 8 -10 18 0 10 -9 24 -20 32 -11 8
-20 19 -20 24 0 10 -39 46 -52 46 -4 0 -8 7 -8 15 0 9 -9 15 -25 15 -14 0 -25
5 -25 10 0 6 -45 10 -115 10 -70 0 -115 -4 -115 -10z"/>
<path d="M11550 4940 c0 -5 -5 -10 -10 -10 -6 0 -18 -6 -26 -12 -34 -29 -40
-33 -54 -36 -8 -2 -16 -8 -18 -13 -2 -5 -10 -9 -18 -9 -8 0 -14 -4 -14 -10 0
-5 -7 -10 -15 -10 -8 0 -15 -4 -15 -10 0 -5 -12 -10 -26 -10 -14 0 -23 -4 -19
-10 4 -6 -5 -10 -19 -10 -14 0 -26 -4 -26 -10 0 -5 -9 -10 -19 -10 -10 0 -21
-7 -25 -15 -3 -8 -15 -15 -26 -15 -11 0 -20 -4 -20 -10 0 -5 -9 -10 -20 -10
-11 0 -20 -4 -20 -10 0 -5 -9 -10 -20 -10 -11 0 -20 -4 -20 -10 0 -5 -11 -10
-25 -10 -14 0 -25 -4 -25 -10 0 -5 -14 -10 -31 -10 -17 0 -28 -4 -24 -10 4 -6
-5 -10 -19 -10 -14 0 -26 -4 -26 -10 0 -5 -9 -10 -21 -10 -11 0 -27 -7 -35
-15 -9 -8 -24 -15 -35 -15 -10 0 -19 -4 -19 -10 0 -6 -3 -9 -7 -8 -13 3 -83
-25 -83 -34 0 -4 -13 -8 -30 -8 -16 0 -30 -4 -30 -10 0 -5 -9 -10 -20 -10 -11
0 -20 -4 -20 -10 0 -5 -9 -10 -20 -10 -11 0 -20 -4 -20 -10 0 -5 -11 -10 -25
-10 -14 0 -25 -4 -25 -10 0 -5 -7 -10 -16 -10 -8 0 -22 -7 -30 -15 -9 -8 -24
-15 -35 -15 -10 0 -19 -4 -19 -10 0 -5 -9 -10 -20 -10 -11 0 -20 -4 -20 -10 0
-5 -11 -10 -25 -10 -14 0 -25 -4 -25 -10 0 -5 -9 -10 -20 -10 -11 0 -20 -4
-20 -10 0 -5 -10 -10 -22 -10 -19 0 -20 -2 -8 -10 12 -8 11 -10 -7 -10 -13 0
-23 -4 -23 -9 0 -5 -11 -12 -25 -15 -14 -4 -25 -10 -25 -14 0 -5 -22 -19 -50
-32 -27 -13 -50 -27 -50 -32 0 -4 -6 -8 -13 -8 -7 0 -19 -9 -27 -20 -8 -11
-23 -20 -33 -20 -10 0 -15 -4 -12 -10 3 -5 1 -10 -5 -10 -14 0 -210 -196 -210
-210 0 -6 -4 -9 -9 -6 -4 3 -17 -10 -27 -29 -10 -19 -22 -35 -27 -35 -4 0 -5
-4 -2 -10 3 -5 -1 -10 -9 -10 -9 0 -16 -9 -16 -20 0 -11 7 -20 16 -20 8 0 12
-4 9 -10 -4 -6 17 -10 55 -10 56 0 63 3 95 35 19 19 35 39 35 45 0 5 8 18 18
28 9 10 24 28 32 40 8 12 18 22 23 22 9 0 57 46 57 55 0 4 7 13 15 21 8 9 15
13 15 9 0 -4 7 0 15 7 33 30 45 38 55 38 5 0 10 5 10 10 0 6 10 10 23 10 18 0
19 2 7 10 -12 8 -11 10 8 10 12 0 22 5 22 10 0 6 12 10 26 10 14 0 23 4 19 10
-4 6 5 10 19 10 14 0 25 5 23 11 -1 6 5 13 13 15 39 9 90 30 90 36 0 5 12 8
26 8 14 0 23 4 19 10 -4 6 5 10 19 10 14 0 26 5 26 10 0 6 14 10 31 10 17 0
28 4 24 10 -4 6 7 10 24 10 17 0 31 5 31 10 0 6 12 10 26 10 14 0 31 6 39 13
7 7 38 19 69 27 31 7 56 17 56 22 0 5 4 7 9 3 5 -3 16 2 24 10 9 8 27 15 41
15 14 0 28 5 31 10 3 6 15 10 26 10 10 0 19 5 19 10 0 6 14 10 30 10 17 0 30
5 30 10 0 6 9 10 20 10 11 0 20 5 20 10 0 6 11 10 25 10 14 0 25 4 25 8 0 5
18 17 40 27 22 10 40 22 40 27 0 4 9 8 20 8 11 0 20 5 20 10 0 6 7 10 15 10 8
0 15 5 15 10 0 6 10 10 23 10 18 0 19 2 7 10 -13 8 -12 10 3 10 22 0 177 153
177 175 0 8 5 15 10 15 6 0 10 7 10 16 0 8 5 12 10 9 6 -3 10 3 10 14 0 12 5
21 10 21 6 0 10 11 10 25 0 14 5 25 10 25 6 0 10 5 10 10 0 6 -7 10 -15 10 -8
0 -15 -4 -15 -10z"/>
<path d="M6370 4450 c12 -7 8 -10 -15 -10 -109 -1 -306 -13 -335 -21 -19 -5
-56 -9 -82 -9 -27 0 -48 -4 -48 -10 0 -6 -32 -10 -75 -10 -43 0 -75 -4 -75
-10 0 -5 -20 -10 -45 -10 -25 0 -45 -4 -45 -10 0 -5 -24 -10 -52 -10 -38 0
-49 -3 -38 -10 11 -7 0 -10 -37 -10 -28 0 -55 -4 -58 -10 -3 -5 -19 -10 -36
-10 -16 0 -29 -4 -29 -8 0 -8 -58 -27 -162 -54 -27 -7 -48 -16 -48 -20 0 -4
-16 -8 -35 -8 -19 0 -35 -4 -35 -10 0 -5 -9 -10 -20 -10 -11 0 -20 -4 -20 -10
0 -5 -12 -10 -26 -10 -14 0 -23 -4 -19 -10 4 -6 -7 -10 -24 -10 -17 0 -31 -4
-31 -10 0 -5 -9 -10 -21 -10 -11 0 -27 -7 -35 -15 -9 -8 -24 -15 -35 -15 -10
0 -19 -4 -19 -10 0 -5 -9 -10 -20 -10 -11 0 -20 -4 -20 -10 0 -5 -11 -10 -25
-10 -14 0 -25 -4 -25 -10 0 -5 -9 -10 -20 -10 -11 0 -20 -4 -20 -10 0 -5 -10
-10 -22 -10 -19 0 -20 -2 -8 -10 12 -8 9 -10 -12 -10 -16 0 -28 -4 -28 -10 0
-5 -9 -10 -20 -10 -11 0 -20 -3 -20 -7 0 -5 -25 -21 -55 -37 -30 -16 -55 -32
-55 -37 0 -5 -8 -9 -18 -9 -10 0 -24 -9 -32 -20 -8 -11 -22 -20 -32 -20 -10 0
-18 -4 -18 -10 0 -5 -10 -10 -22 -10 -19 0 -20 -2 -8 -10 12 -8 9 -10 -13 -10
-16 0 -26 -4 -22 -10 3 -5 -10 -17 -29 -27 -20 -9 -36 -20 -36 -25 0 -4 -8 -8
-18 -8 -10 0 -24 -9 -32 -20 -8 -11 -22 -20 -32 -20 -10 0 -18 -4 -18 -10 0
-5 -5 -10 -11 -10 -6 0 -17 -7 -26 -15 -8 -8 -19 -13 -24 -10 -5 4 -9 0 -9 -7
0 -7 -20 -24 -45 -37 -24 -13 -42 -27 -39 -32 3 -5 -2 -9 -10 -9 -9 0 -16 -4
-16 -10 0 -5 -9 -10 -21 -10 -11 0 -17 -4 -14 -10 3 -5 0 -10 -7 -10 -8 0 -20
-9 -28 -20 -8 -11 -20 -20 -26 -20 -7 0 -37 -25 -68 -55 -31 -31 -56 -51 -56
-45 0 6 -22 -11 -48 -37 -27 -26 -58 -55 -70 -63 -12 -8 -22 -18 -22 -23 0
-13 -27 -37 -34 -30 -3 4 -6 1 -6 -6 0 -13 -24 -41 -35 -41 -3 0 -16 -9 -28
-20 -87 -79 -107 -100 -97 -100 7 0 6 -6 -4 -15 -8 -8 -18 -15 -23 -15 -4 0
-17 -12 -28 -27 -11 -15 -44 -51 -72 -80 -29 -29 -53 -58 -53 -64 0 -6 -20
-30 -45 -55 -25 -24 -45 -48 -45 -55 0 -6 -13 -24 -30 -39 -16 -15 -30 -35
-30 -43 0 -9 -3 -17 -7 -19 -15 -6 -62 -76 -56 -82 4 -3 -1 -6 -10 -6 -9 0
-21 -15 -28 -34 -7 -19 -16 -33 -21 -30 -4 3 -8 -2 -8 -10 0 -9 -4 -16 -10
-16 -5 0 -10 -9 -10 -20 0 -11 -4 -20 -10 -20 -5 0 -10 -7 -10 -16 0 -9 -8
-24 -19 -33 -10 -9 -21 -26 -25 -39 -4 -12 -12 -20 -17 -17 -5 4 -9 -6 -9 -20
0 -15 -4 -24 -10 -20 -5 3 -10 -1 -10 -9 0 -9 -4 -16 -10 -16 -5 0 -10 -9 -10
-20 0 -11 -4 -20 -10 -20 -5 0 -10 -11 -10 -25 0 -14 -4 -25 -10 -25 -5 0 -10
-9 -10 -19 0 -11 -4 -21 -9 -23 -5 -1 -11 -10 -13 -18 -2 -8 -9 -21 -16 -28
-7 -8 -16 -28 -19 -44 -3 -16 -12 -32 -19 -35 -8 -3 -14 -16 -14 -28 0 -13 -4
-27 -10 -30 -5 -3 -10 -15 -10 -26 0 -10 -4 -19 -10 -19 -5 0 -10 -11 -10 -25
0 -14 -4 -25 -10 -25 -5 0 -10 -15 -10 -32 0 -25 -3 -29 -10 -18 -7 11 -10 4
-10 -27 0 -24 -4 -43 -10 -43 -5 0 -10 -9 -10 -19 0 -11 -4 -22 -9 -25 -4 -3
-11 -24 -15 -46 -3 -22 -11 -40 -16 -40 -6 0 -10 -13 -10 -30 0 -16 -4 -30
-10 -30 -5 0 -10 -20 -10 -45 0 -25 -4 -45 -10 -45 -5 0 -10 -18 -10 -41 0
-24 -4 -38 -10 -34 -6 4 -10 -13 -10 -44 0 -28 -4 -51 -10 -51 -6 0 -10 -28
-10 -65 0 -36 -4 -65 -8 -65 -18 0 -32 -226 -30 -470 1 -140 4 -202 5 -137 2
64 7 117 12 117 5 0 11 35 15 78 3 42 8 95 11 117 3 22 8 60 11 84 4 32 8 40
15 30 6 -9 9 6 9 44 0 31 5 57 10 57 6 0 10 23 10 50 0 28 5 50 10 50 6 0 10
21 10 48 0 34 3 43 10 32 7 -11 10 -4 10 28 0 23 5 42 10 42 6 0 10 16 10 35
0 19 4 35 8 35 4 0 14 21 21 48 29 102 44 142 52 142 5 0 9 14 9 30 0 17 5 30
10 30 6 0 10 11 10 25 0 14 5 25 10 25 6 0 10 12 10 26 0 14 4 23 10 19 6 -4
10 7 10 24 0 17 5 31 10 31 6 0 10 9 10 21 0 11 7 27 15 36 9 8 19 28 22 44 3
16 12 29 19 29 8 0 14 11 14 26 0 14 4 23 10 19 6 -4 10 5 10 19 0 14 5 26 10
26 6 0 10 9 10 20 0 11 5 20 10 20 6 0 10 9 10 20 0 11 5 20 10 20 6 0 10 10
10 22 0 12 3 18 6 15 4 -4 20 19 37 51 16 31 34 59 38 60 5 2 9 10 9 18 0 8 5
14 10 14 6 0 10 7 10 15 0 8 5 15 10 15 6 0 10 5 10 11 0 7 10 20 22 30 11 11
16 19 9 19 -6 0 2 14 19 31 16 17 32 40 35 50 4 11 11 17 16 14 5 -4 9 1 9 9
0 9 5 16 10 16 6 0 10 8 10 18 0 10 9 24 20 32 11 8 20 22 20 32 0 10 5 18 10
18 6 0 10 4 10 9 0 9 17 29 100 118 17 18 30 37 30 43 0 6 5 8 10 5 6 -3 10
-2 10 4 0 10 34 50 88 107 12 13 22 26 22 30 0 11 74 72 82 67 5 -2 6 -9 2
-14 -3 -5 -9 -7 -14 -4 -4 3 -11 -6 -14 -20 -4 -14 -13 -25 -21 -25 -8 0 -15
-9 -15 -20 0 -11 -4 -20 -10 -20 -5 0 -10 -7 -10 -15 0 -8 -4 -15 -10 -15 -5
0 -10 -7 -10 -15 0 -8 -4 -15 -10 -15 -5 0 -10 -5 -10 -11 0 -7 -10 -20 -22
-30 -12 -11 -16 -19 -8 -19 8 0 6 -7 -7 -17 -11 -10 -33 -42 -49 -70 -16 -29
-32 -53 -36 -53 -5 0 -8 -8 -8 -18 0 -10 -9 -24 -20 -32 -11 -8 -20 -25 -20
-37 0 -13 -4 -23 -10 -23 -5 0 -10 -9 -10 -20 0 -11 -4 -20 -10 -20 -5 0 -10
-9 -10 -20 0 -11 -4 -20 -10 -20 -5 0 -10 -7 -10 -15 0 -9 -7 -18 -15 -21 -8
-4 -15 -17 -15 -30 0 -13 -4 -24 -10 -24 -5 0 -10 -12 -10 -26 0 -14 -4 -23
-10 -19 -6 4 -10 -7 -10 -24 0 -17 -4 -31 -10 -31 -5 0 -10 -9 -10 -20 0 -11
-4 -20 -10 -20 -5 0 -10 -11 -10 -25 0 -14 -3 -25 -8 -25 -4 0 -21 -43 -37
-95 -16 -52 -33 -95 -37 -95 -4 0 -8 -13 -8 -29 0 -17 -5 -33 -10 -36 -6 -3
-10 -25 -10 -48 0 -31 -3 -38 -10 -27 -7 11 -10 4 -10 -27 0 -24 -4 -43 -10
-43 -5 0 -10 -20 -10 -45 0 -25 -4 -45 -10 -45 -5 0 -10 -22 -10 -49 0 -27 -4
-51 -9 -53 -5 -2 -11 -25 -14 -53 -3 -27 -8 -63 -11 -80 -3 -16 -8 -59 -10
-95 -3 -36 -10 -66 -16 -68 -14 -5 -14 -539 0 -544 5 -1 13 -38 16 -81 7 -78
7 -79 33 -73 14 4 45 9 69 13 23 3 42 10 42 14 0 5 25 9 55 9 30 0 55 5 55 10
0 6 33 10 78 10 53 0 72 3 62 10 -10 6 114 10 360 10 234 0 370 -4 360 -10 -9
-6 32 -11 120 -14 193 -8 397 -22 385 -26 -26 -10 1066 -52 1143 -44 26 3 205
10 397 16 538 17 571 18 555 29 -10 5 43 9 143 9 98 0 157 4 157 10 0 6 58 10
153 11 94 0 144 4 132 9 -12 5 34 9 123 9 93 1 141 5 137 11 -4 6 40 10 125
10 85 0 129 4 125 10 -4 6 42 10 132 10 93 0 133 3 123 10 -12 8 -12 10 5 10
11 1 79 5 150 11 72 5 186 12 255 16 69 3 127 9 128 14 2 5 81 9 175 10 102 1
162 4 147 9 -14 4 151 9 365 11 272 2 348 5 250 9 -128 5 -121 6 95 8 155 1
230 -2 220 -8 -10 -6 44 -10 162 -10 132 0 178 -3 181 -12 3 -7 6 12 6 42 1
39 4 51 11 40 7 -10 10 33 10 130 0 97 -3 140 -10 130 -7 -10 -10 20 -10 95 0
75 -3 105 -10 95 -7 -10 -10 6 -10 55 0 44 -4 65 -9 56 -6 -9 -11 3 -14 40 -7
74 -18 122 -30 137 -5 7 -13 29 -18 50 -4 20 -13 55 -19 77 -7 22 -14 55 -17
73 -3 17 -9 32 -14 32 -5 0 -9 14 -9 30 0 17 -4 30 -10 30 -5 0 -10 11 -10 25
0 14 -4 25 -10 25 -5 0 -10 14 -10 30 0 17 -4 30 -10 30 -5 0 -10 11 -10 25 0
14 -4 25 -10 25 -5 0 -10 13 -10 30 0 17 -5 29 -11 27 -6 -1 -18 19 -26 46 -9
26 -20 47 -24 47 -5 0 -9 9 -9 20 0 11 -4 20 -10 20 -5 0 -10 9 -10 20 0 11
-4 20 -10 20 -5 0 -10 12 -10 26 0 14 -4 23 -10 19 -6 -4 -10 5 -10 19 0 14
-4 26 -10 26 -5 0 -10 9 -10 20 0 11 -4 20 -8 20 -5 0 -21 27 -37 60 -16 33
-32 60 -37 60 -4 0 -8 7 -8 15 0 8 -4 15 -10 15 -5 0 -10 9 -10 20 0 11 -4 20
-10 20 -5 0 -10 7 -10 16 0 8 -4 12 -10 9 -5 -3 -10 3 -10 14 0 12 -4 21 -10
21 -5 0 -10 7 -10 14 0 8 -11 27 -25 42 -14 15 -25 32 -25 38 0 6 -9 18 -20
26 -11 8 -20 22 -20 32 0 10 -4 18 -10 18 -5 0 -10 7 -10 16 0 8 -4 12 -10 9
-5 -3 -10 -1 -10 5 0 6 -7 18 -15 27 -8 8 -13 19 -10 24 4 5 0 9 -7 9 -7 0
-24 17 -38 38 -14 20 -33 44 -42 53 -10 9 -18 21 -18 28 0 6 -4 11 -10 11 -5
0 -10 7 -10 16 0 8 -4 12 -10 9 -5 -3 -10 1 -10 10 0 19 -23 45 -39 45 -6 0
-11 3 -11 8 0 4 -25 33 -55 66 -30 32 -55 62 -55 65 0 4 -40 49 -90 99 -49 51
-90 97 -90 103 0 5 -4 8 -8 5 -5 -3 -15 6 -22 19 -7 14 -17 25 -22 25 -16 0
-58 48 -59 67 0 10 -3 13 -5 6 -3 -7 -30 12 -66 47 -33 33 -64 60 -69 60 -5 0
-24 16 -43 35 -20 19 -38 35 -40 35 -3 0 -16 10 -30 23 -14 12 -36 32 -50 45
-14 12 -32 22 -41 22 -8 0 -15 5 -15 10 0 6 -7 10 -15 10 -8 0 -15 5 -15 10 0
6 -7 10 -15 10 -8 0 -15 5 -15 10 0 6 -7 10 -15 10 -8 0 -15 4 -15 9 0 5 -13
14 -30 21 -16 7 -30 16 -30 21 0 5 -11 11 -25 15 -14 3 -25 10 -25 15 0 5 -9
9 -20 9 -11 0 -20 5 -20 10 0 6 -9 10 -21 10 -11 0 -17 5 -14 10 4 6 -5 10
-20 10 -15 0 -24 4 -20 10 3 6 -3 10 -14 10 -12 0 -21 5 -21 10 0 6 -9 10 -20
10 -11 0 -20 3 -20 8 0 8 -49 32 -67 32 -7 0 -13 7 -13 15 0 10 -10 15 -30 15
-16 0 -30 5 -30 10 0 6 -11 10 -25 10 -14 0 -25 5 -25 10 0 6 -14 10 -31 10
-17 0 -28 4 -24 10 4 6 -5 10 -19 10 -14 0 -26 5 -26 10 0 6 -11 10 -24 10
-13 0 -26 4 -28 10 -1 5 -15 11 -30 12 -16 1 -28 5 -28 9 0 4 -15 9 -32 12
-61 10 -113 26 -116 36 -2 6 -19 11 -37 11 -19 0 -37 5 -40 10 -3 6 -22 10
-41 10 -19 0 -34 5 -34 10 0 6 -26 10 -57 10 -41 0 -54 3 -43 10 11 7 -4 10
-50 10 -46 0 -61 3 -50 10 11 7 -5 10 -52 10 -39 0 -68 4 -68 10 0 6 -26 10
-58 10 -31 0 -72 4 -91 10 -19 5 -118 13 -220 17 -104 4 -175 10 -161 14 15 4
-11 7 -65 8 -61 0 -85 -2 -75 -9z"/>
<path d="M480 3570 c-8 -5 -41 -10 -73 -10 -36 0 -56 -4 -52 -10 4 -6 -10 -10
-34 -10 -23 0 -41 -4 -41 -10 0 -5 -16 -10 -36 -10 -21 0 -33 -4 -29 -10 4 -6
-5 -10 -19 -10 -14 0 -26 -4 -26 -9 0 -9 -26 -21 -43 -20 -5 0 -17 -9 -26 -20
-10 -12 -29 -21 -42 -21 -21 -1 -20 -3 11 -18 31 -15 78 -16 451 -14 364 2
419 1 432 -13 9 -8 29 -15 46 -15 17 0 31 -4 31 -10 0 -5 14 -10 30 -10 17 0
30 -4 30 -10 0 -5 14 -10 31 -10 17 0 28 -4 24 -10 -4 -6 7 -10 24 -10 17 0
31 -4 31 -10 0 -5 14 -10 30 -10 17 0 30 -4 30 -10 0 -5 11 -10 24 -10 14 0
28 -4 31 -10 3 -5 17 -10 30 -10 13 0 30 -7 39 -15 8 -8 27 -15 43 -15 22 0
25 -2 13 -10 -11 -7 -5 -10 23 -10 23 0 36 -4 32 -10 -4 -6 8 -10 29 -10 20 0
36 -4 36 -10 0 -5 9 -10 20 -10 11 0 20 -4 20 -10 0 -5 16 -10 35 -10 19 0 35
-3 35 -8 0 -7 51 -27 95 -37 11 -3 21 -9 23 -15 2 -5 15 -10 28 -10 13 0 24
-4 24 -10 0 -5 14 -10 30 -10 17 0 30 -4 30 -10 0 -5 16 -10 36 -10 21 0 33
-4 29 -10 -4 -6 8 -10 29 -10 20 0 36 -4 36 -10 0 -5 14 -10 30 -10 17 0 30
-4 30 -9 0 -5 12 -11 28 -14 26 -6 64 -15 147 -36 22 -5 41 -15 43 -20 2 -6
26 -11 53 -11 27 0 49 -4 49 -10 0 -5 20 -10 45 -10 25 0 45 -4 45 -10 0 -6
27 -10 60 -10 33 0 60 -4 60 -10 0 -6 29 -10 68 -10 37 0 73 -5 79 -11 19 -19
43 14 43 61 0 46 -13 77 -42 100 -10 8 -31 25 -46 37 -15 13 -35 23 -44 23
-10 0 -18 5 -18 10 0 6 -13 10 -30 10 -16 0 -30 5 -30 10 0 6 -13 10 -30 10
-16 0 -30 5 -30 10 0 6 -20 10 -45 10 -25 0 -45 5 -45 10 0 6 -15 10 -32 10
-18 0 -49 4 -68 9 -19 5 -66 12 -104 16 -46 5 -64 10 -55 16 9 5 -23 9 -84 9
-63 0 -96 4 -92 10 4 6 -13 10 -44 10 -28 0 -51 5 -51 10 0 6 -9 10 -20 10
-11 0 -20 5 -20 10 0 6 -16 10 -35 10 -19 0 -35 5 -35 10 0 6 -13 10 -29 10
-16 0 -31 5 -33 11 -2 5 -10 11 -18 13 -8 2 -22 6 -30 9 -8 3 -39 14 -67 23
-29 9 -53 20 -53 25 0 5 -13 9 -30 9 -16 0 -30 5 -30 10 0 6 -17 10 -37 10
-28 0 -34 3 -23 10 11 7 7 10 -17 10 -18 0 -33 5 -33 10 0 6 -13 10 -30 10
-16 0 -30 5 -30 10 0 6 -16 10 -35 10 -19 0 -35 4 -35 8 0 7 -26 15 -112 39
-10 2 -18 9 -18 14 0 5 -18 9 -40 9 -22 0 -40 5 -40 10 0 6 -18 10 -41 10 -24
0 -38 4 -34 10 4 6 -21 10 -67 10 -51 0 -68 3 -58 10 11 7 -5 10 -52 10 -39 0
-68 4 -68 10 0 13 -250 13 -270 0z"/>
<path d="M12760 2270 c0 -5 -16 -10 -35 -10 -19 0 -35 -4 -35 -10 0 -5 -18
-10 -39 -10 -22 0 -41 -5 -43 -10 -2 -6 -28 -15 -58 -20 -30 -5 -64 -11 -75
-13 -27 -6 -274 -22 -305 -20 -14 1 -101 4 -195 8 -93 3 -210 10 -260 15 -49
5 -162 12 -250 16 -96 4 -152 10 -140 15 11 4 -53 8 -147 8 -91 1 -168 -3
-170 -8 -1 -5 -46 -14 -98 -20 -52 -6 -117 -16 -145 -22 -27 -5 -65 -13 -82
-16 -18 -3 -33 -9 -33 -14 0 -5 -16 -9 -36 -9 -21 0 -33 -4 -29 -10 4 -6 -5
-10 -19 -10 -14 0 -26 -4 -26 -10 0 -5 -7 -10 -15 -10 -8 0 -23 -4 -33 -9 -9
-5 -30 -15 -47 -22 -16 -8 -35 -18 -42 -24 -28 -23 -39 -30 -52 -33 -7 -1 -19
-8 -26 -16 -10 -10 -5 -15 29 -25 51 -15 259 -10 326 8 25 7 57 15 73 18 15 3
27 9 27 14 0 5 18 9 40 9 22 0 40 5 40 10 0 6 16 10 36 10 19 0 33 4 30 9 -3
5 11 11 32 14 55 8 95 17 117 28 25 12 313 5 440 -11 50 -6 121 -13 159 -16
46 -4 65 -9 55 -15 -9 -5 14 -9 64 -9 50 0 76 -4 72 -10 -4 -6 22 -10 69 -10
44 0 76 -4 76 -10 0 -6 63 -10 170 -10 107 0 170 4 170 10 0 6 20 10 45 10 25
0 45 5 45 10 0 6 14 10 30 10 17 0 30 5 30 10 0 6 11 10 25 10 14 0 25 4 25 8
0 5 16 14 35 22 19 7 37 20 40 27 2 8 9 11 15 8 5 -3 10 1 10 10 0 9 5 13 10
10 6 -3 10 -1 10 5 0 12 24 40 35 40 12 0 34 27 28 34 -4 3 -1 6 6 6 13 0 41
24 41 34 0 3 -4 6 -10 6 -5 0 -10 -4 -10 -10z"/>
<path d="M450 1433 c-25 -8 -76 -24 -115 -36 -38 -11 -71 -25 -73 -29 -2 -4
-12 -8 -23 -8 -10 0 -19 -4 -19 -10 0 -5 -7 -10 -15 -10 -8 0 -15 -4 -15 -10
0 -5 -7 -10 -15 -10 -9 0 -31 -15 -50 -32 -19 -18 -48 -45 -66 -60 -21 -19
-26 -28 -15 -28 27 0 106 24 106 32 0 4 22 8 49 8 28 0 53 5 56 10 3 6 38 10
76 10 44 0 68 4 64 10 -4 7 108 10 330 10 222 0 334 -3 330 -10 -4 -6 23 -10
74 -10 47 0 81 -4 81 -10 0 -6 30 -10 70 -10 39 0 70 -4 70 -8 0 -4 35 -14 78
-21 42 -7 86 -16 97 -19 24 -7 20 -6 73 -16 23 -4 42 -11 42 -16 0 -7 26 -13
129 -26 30 -4 39 -9 30 -15 -9 -5 27 -8 91 -8 68 0 98 3 85 9 -16 7 -13 9 18
9 20 1 37 6 37 11 0 6 9 10 20 10 18 0 20 7 20 61 0 59 -13 89 -40 89 -6 0 -8
5 -5 10 3 6 0 10 -7 10 -8 0 -20 9 -28 20 -8 11 -22 20 -32 20 -10 0 -18 5
-18 10 0 6 -9 10 -20 10 -11 0 -20 4 -20 8 0 5 -31 15 -68 22 -60 11 -77 10
-138 -5 -95 -24 -183 -29 -289 -16 -49 6 -113 13 -142 16 -28 3 -57 7 -65 9
-7 3 -51 7 -98 11 -46 3 -89 10 -94 15 -17 17 -502 10 -556 -7z"/>
<path d="M2081 1214 c0 -11 3 -14 6 -6 3 7 2 16 -1 19 -3 4 -6 -2 -5 -13z"/>
<path d="M9460 499 c-25 -4 -147 -8 -272 -8 -145 -1 -228 -5 -228 -11 0 -6 -3
-9 -7 -8 -12 3 -332 -11 -503 -22 -85 -5 -360 -15 -610 -21 -263 -6 -456 -14
-458 -20 -2 -5 -55 -9 -118 -9 -69 0 -114 -4 -114 -10 0 -6 -61 -10 -162 -11
-101 0 -155 -4 -143 -9 12 -5 -100 -9 -275 -10 -165 -1 -284 -6 -270 -10 14
-4 -88 -8 -233 -9 -169 -1 -256 -4 -252 -11 4 -6 -30 -10 -95 -10 -59 0 -99
-4 -95 -9 3 -5 -23 -12 -57 -15 -35 -2 -119 -10 -188 -15 -69 -6 -190 -11
-270 -11 -97 0 -140 -3 -130 -10 10 -6 -485 -10 -1405 -10 -920 0 -1415 4
-1405 10 10 6 -202 10 -607 10 -409 0 -623 -3 -623 -10 0 -6 -80 -11 -217 -11
-147 -1 -202 -4 -168 -10 116 -18 170 -31 173 -39 2 -6 30 -10 62 -10 32 0 62
-4 65 -10 3 -5 39 -10 78 -10 50 0 67 -3 57 -10 -10 -7 10 -10 65 -10 55 0 75
-3 65 -10 -10 -7 12 -10 73 -10 51 0 87 -4 87 -10 0 -6 37 -10 90 -10 53 0 90
-4 90 -10 0 -5 24 -10 53 -10 28 0 88 -4 132 -10 44 -5 125 -13 179 -16 63 -4
94 -9 85 -15 -8 -5 71 -9 196 -10 127 0 202 -4 190 -9 -12 -5 149 -9 385 -10
236 -1 397 -5 385 -10 -12 -5 62 -9 188 -9 132 -1 207 3 207 9 0 6 135 10 386
10 254 0 383 3 379 10 -4 7 74 10 227 11 128 0 224 4 213 8 -12 5 44 11 140
15 88 3 194 10 235 15 41 4 122 9 180 10 58 1 107 6 108 12 2 5 73 9 165 9
108 0 157 4 147 10 -10 6 41 10 155 11 104 0 162 4 150 9 -12 5 47 9 155 10
97 1 164 5 150 10 -15 4 40 10 140 14 215 8 439 22 570 34 58 6 186 15 285 21
99 6 234 16 300 21 66 6 163 10 215 10 65 0 90 3 80 10 -10 6 66 10 225 11
132 1 243 1 248 0 4 0 7 4 7 9 0 6 157 11 448 12 246 1 422 4 392 8 -36 4 -1
7 100 7 101 0 136 -3 100 -7 -30 -4 128 -7 352 -8 259 -1 409 -6 413 -12 4 -6
70 -10 166 -10 87 0 159 -4 159 -9 0 -4 62 -11 138 -15 75 -3 180 -10 232 -16
88 -9 298 -30 328 -32 6 -1 12 -5 12 -9 0 -7 49 -13 224 -25 53 -4 75 -9 65
-15 -9 -6 12 -9 59 -9 46 0 71 -4 67 -10 -4 -6 21 -10 67 -10 51 0 68 -3 58
-10 -11 -7 5 -10 53 -10 38 0 67 -4 67 -10 0 -5 15 -10 34 -10 18 0 46 -4 62
-9 16 -6 47 -12 69 -15 22 -2 41 -9 43 -15 5 -14 52 -15 52 -1 0 6 -10 10 -21
10 -12 0 -30 10 -40 22 -11 12 -19 16 -19 8 0 -8 -8 -4 -19 8 -10 12 -23 22
-29 22 -15 0 -72 34 -72 43 0 4 -13 7 -30 7 -16 0 -30 5 -30 10 0 6 -12 10
-26 10 -14 0 -23 4 -19 10 4 6 -7 10 -25 10 -18 0 -29 4 -25 10 4 6 -7 10 -24
10 -17 0 -31 5 -31 10 0 6 -13 10 -30 10 -16 0 -30 5 -30 10 0 6 -11 10 -24
10 -14 0 -28 4 -31 10 -3 5 -17 10 -30 10 -13 0 -30 7 -39 15 -8 8 -28 15 -45
15 -17 0 -31 5 -31 10 0 6 -16 10 -36 10 -21 0 -33 4 -29 10 4 6 -15 10 -50
10 -35 0 -54 4 -50 10 4 6 -12 10 -39 10 -25 0 -46 5 -46 10 0 6 -20 10 -45
10 -25 0 -45 4 -45 9 0 4 -28 11 -62 15 -35 3 -90 11 -123 16 -33 5 -114 15
-180 21 -66 6 -122 15 -125 19 -12 18 -1027 36 -1120 19z"/>
</g>
</svg>
